<svg width="182" height="44" viewBox="0 0 182 44" fill="none" xmlns="http://www.w3.org/2000/svg">
<path fill-rule="evenodd" clip-rule="evenodd" d="M16.9704 17.0004C14.7132 17.0004 12.8829 18.8194 12.8829 21.0616C12.8829 23.303 14.7132 25.1211 16.9704 25.1211C19.2267 25.1211 21.0562 23.303 21.0562 21.0616C21.0562 18.8194 19.2267 17.0004 16.9704 17.0004Z" fill="#E45A80"/>
<path fill-rule="evenodd" clip-rule="evenodd" d="M66.4816 27.3583V41.8026L72.1887 41.8017V27.3583C72.1887 23.0964 75.6777 19.6301 79.9662 19.6292V13.9576C72.5305 13.9585 66.4816 19.9698 66.4816 27.3583Z" fill="#E45A80"/>
<path fill-rule="evenodd" clip-rule="evenodd" d="M148.201 37.6847C143.293 37.6847 139.299 33.7168 139.299 28.839C139.299 23.9611 143.293 19.9923 148.201 19.9923C153.11 19.9914 157.104 23.9602 157.104 28.8381C157.104 33.7159 153.11 37.6847 148.201 37.6847ZM157.497 17.6462C154.969 15.5694 151.729 14.3207 148.201 14.3207C140.146 14.3216 133.591 20.8345 133.591 28.8398C133.591 36.8443 140.146 43.3563 148.201 43.3563C151.729 43.3563 154.969 42.1067 157.497 40.0299V41.7961H163.205V14.92H157.497V17.6462Z" fill="#E45A80"/>
<path fill-rule="evenodd" clip-rule="evenodd" d="M23.636 41.805H29.3431V0.392173L23.636 0.393053V41.805Z" fill="#E45A80"/>
<path fill-rule="evenodd" clip-rule="evenodd" d="M168.256 27.3517V41.796L173.963 41.7951V27.3517C173.963 23.0898 177.452 19.6235 181.741 19.6226V13.951C174.305 13.9519 168.256 19.9632 168.256 27.3517Z" fill="#E45A80"/>
<path fill-rule="evenodd" clip-rule="evenodd" d="M116.76 13.9557C112.402 13.9557 108.523 16.0219 106.056 19.219C103.59 16.0228 99.7106 13.9566 95.353 13.9575C87.9182 13.9575 81.8692 19.9687 81.8692 27.3572V41.8015L87.5764 41.8007V27.3572C87.5764 23.0954 91.0653 19.6291 95.353 19.6282C99.6416 19.6282 103.131 23.0945 103.131 27.3563V41.7998H108.983V27.3555C108.983 23.0945 112.471 19.6273 116.76 19.6273C121.048 19.6273 124.536 23.0936 124.536 27.3546V41.7989L130.244 41.798V27.3546C130.244 19.9661 124.195 13.9548 116.76 13.9557Z" fill="#E45A80"/>
<path fill-rule="evenodd" clip-rule="evenodd" d="M48.0342 37.6911C43.1249 37.6911 39.1321 33.7232 39.1321 28.8454C39.1321 23.9675 43.1249 19.9987 48.0342 19.9987C52.9426 19.9979 56.9372 23.9667 56.9372 28.8445C56.9372 33.7223 52.9426 37.6911 48.0342 37.6911ZM48.0342 14.3271C39.9778 14.328 33.424 20.8409 33.424 28.8463C33.424 36.8507 39.9787 43.3627 48.0342 43.3627C56.0898 43.3619 62.6444 36.849 62.6444 28.8436C62.6444 20.8391 56.0898 14.3263 48.0342 14.3271Z" fill="#E45A80"/>
<path fill-rule="evenodd" clip-rule="evenodd" d="M17.8724 0.113037C10.4854 0.169357 4.49223 6.15688 4.49223 13.5102V18.2648H0V23.9364L4.49223 23.9355V41.7775H10.1994V13.5102C10.1994 9.28352 13.6325 5.84096 17.8724 5.78464V0.113037Z" fill="#E45A80"/>
</svg>
