<?xml version="1.0" encoding="iso-8859-1"?>
<!-- Uploaded to: SVG Repo, www.svgrepo.com, Generator: SVG Repo Mixer Tools -->
<svg fill="currentColor" version="1.1" id="icon" xmlns="http://www.w3.org/2000/svg"
	xmlns:xlink="http://www.w3.org/1999/xlink" viewBox="0 0 512 512" xml:space="preserve">
	<g>
		<g>
			<g>
				<path d="M476.354,129.62H370.959c14.971-13.641,24.383-33.285,24.383-55.089C395.342,33.434,361.908,0,320.81,0
				C293.065,0,268.83,15.25,256,37.796C243.17,15.25,218.935,0,191.19,0c-41.097,0-74.532,33.434-74.532,74.532
				c0,21.803,9.412,41.447,24.383,55.089H35.646c-5.369,0-9.721,4.351-9.721,9.722v103.696c0,5.37,4.353,9.722,9.721,9.722h16.203
				v249.519c0,5.37,4.353,9.721,9.722,9.721H450.43c5.369,0,9.722-4.351,9.722-9.721V294.886c0-5.37-4.353-9.722-9.722-9.722
				c-5.369,0-9.721,4.351-9.721,9.722v197.671H304.608V294.886c0-5.37-4.353-9.722-9.721-9.722c-5.369,0-9.722,4.351-9.722,9.722
				v197.671h-58.329V252.76H450.43h25.924c5.369,0,9.721-4.351,9.721-9.722V139.342C486.076,133.972,481.723,129.62,476.354,129.62z
				 M265.721,74.532c0-30.376,24.712-55.089,55.089-55.089c30.377,0,55.089,24.712,55.089,55.089
				c0,30.377-24.712,55.089-55.089,55.089h-55.089V74.532z M207.392,492.557H71.291V252.76h136.101V492.557z M207.392,233.316
				H45.367v-84.253h162.025V233.316z M191.19,129.62c-30.377,0-55.089-24.712-55.089-55.089c0-30.376,24.712-55.089,55.089-55.089
				s55.089,24.712,55.089,55.089v55.089H191.19z M285.165,233.316h-58.329v-84.253h58.329V233.316z M466.633,233.316H304.608
				v-84.253h162.025V233.316z" />
				<path d="M191.19,38.886c-19.656,0-35.646,15.991-35.646,35.646c0,19.654,15.99,35.646,35.646,35.646h25.924
				c5.369,0,9.721-4.351,9.721-9.722V74.532C226.835,54.877,210.846,38.886,191.19,38.886z M207.392,90.734H191.19
				c-8.935,0-16.203-7.268-16.203-16.203c0-8.935,7.268-16.203,16.203-16.203s16.203,7.268,16.203,16.203V90.734z" />
				<path
					d="M356.456,74.532c0-19.654-15.99-35.646-35.646-35.646c-19.656,0-35.646,15.991-35.646,35.646v25.924
				c0,5.37,4.353,9.722,9.722,9.722h25.924C340.466,110.177,356.456,94.186,356.456,74.532z M304.608,74.532
				c0-8.935,7.268-16.203,16.203-16.203c8.935,0,16.203,7.268,16.203,16.203c0,8.935-7.268,16.203-16.203,16.203h-16.203V74.532z" />
			</g>
		</g>
	</g>
</svg>