<svg width="0" height="0">

    <symbol id="world" viewBox="0 0 20 20" fill="none" xmlns="http://www.w3.org/2000/svg">
        <path
            d="M19.4397 13.3054C19.811 12.242 20.0004 11.1237 20 9.9975C20.0011 8.86712 19.8082 7.74491 19.4297 6.67961V6.63964C18.7367 4.69676 17.4589 3.01564 15.7716 1.82689C14.0842 0.638145 12.07 0 10.0051 0C7.94032 0 5.92608 0.638145 4.23872 1.82689C2.55136 3.01564 1.27355 4.69676 0.580567 6.63964C0.576245 6.65608 0.572904 6.67277 0.570562 6.68961C-0.190187 8.83284 -0.190187 11.1722 0.570562 13.3154C0.570562 13.3354 0.580567 13.3454 0.580567 13.3554C1.27251 15.2986 2.54943 16.9804 4.23616 18.17C5.92289 19.3597 7.93679 19.9989 10.0016 20C12.0664 20.0011 14.081 19.364 15.769 18.1762C17.457 16.9883 18.7357 15.3079 19.4297 13.3654C19.4286 13.3449 19.432 13.3244 19.4397 13.3054ZM9.99514 18.7919C8.55444 17.4428 7.48392 15.6239 6.90364 13.5952H13.0866C12.5064 15.6239 11.4358 17.4428 9.99514 18.7919ZM6.69353 12.7957C6.29344 10.9516 6.29344 9.04336 6.69353 7.19928H13.2967C13.6968 9.04336 13.6968 10.9516 13.2967 12.7957H6.69353ZM0.790669 9.9975C0.787164 9.04729 0.935777 8.10262 1.23088 7.19928H5.87314C5.49962 9.04611 5.49962 10.9489 5.87314 12.7957H1.23088C0.935777 11.8924 0.787164 10.9477 0.790669 9.9975ZM9.99514 1.2031C11.4358 2.55224 12.5064 4.37109 13.0866 6.39979H6.90364C7.48392 4.37109 8.55444 2.55224 9.99514 1.2031ZM14.1171 7.19928H18.7594C19.3463 9.0187 19.3463 10.9763 18.7594 12.7957H14.1171C14.4907 10.9489 14.4907 9.04611 14.1171 7.19928ZM18.4693 6.39979H13.9371C13.3933 4.2982 12.3025 2.37773 10.7755 0.83334C12.4425 0.977874 14.0388 1.57211 15.3939 2.55254C16.7491 3.53297 17.812 4.86276 18.4693 6.39979ZM9.22476 0.83334C7.6914 2.37453 6.5967 4.29587 6.05322 6.39979H1.52102C2.17904 4.86135 3.24355 3.53063 4.60057 2.55009C5.95759 1.56956 7.55603 0.976131 9.22476 0.83334ZM1.52102 13.5952H6.05322C6.6235 15.7438 7.71403 17.6726 9.22476 19.1617C7.55603 19.0189 5.95759 18.4254 4.60057 17.4449C3.24355 16.4644 2.17904 15.1336 1.52102 13.5952ZM10.7755 19.1617C12.2762 17.6726 13.3668 15.7438 13.9371 13.5952H18.4693C17.812 15.1322 16.7491 16.462 15.3939 17.4425C14.0388 18.4229 12.4425 19.0171 10.7755 19.1617Z"
            fill="currentColor"></path>
    </symbol>

    <symbol id="search" viewBox="0 0 26 26" fill="none" xmlns="http://www.w3.org/2000/svg">
        <path fill-rule="evenodd" clip-rule="evenodd"
            d="M19.0409 17.9801L25.7538 24.5857C26.0822 24.9092 26.0822 25.4342 25.7531 25.7577C25.4247 26.0811 24.8916 26.0811 24.5633 25.7577L17.8243 19.126C15.9437 20.6271 13.5495 21.53 10.939 21.53C4.89737 21.53 0 16.7106 0 10.7649C0 4.81908 4.89737 -0.000244141 10.939 -0.000244141C16.9807 -0.000244141 21.8781 4.81908 21.8789 10.7649C21.8789 13.5443 20.7988 16.0702 19.0409 17.9801ZM1.68332 10.7648C1.68332 15.7955 5.82732 19.8736 10.9392 19.8736C16.0512 19.8736 20.1951 15.7955 20.1951 10.7648C20.1951 5.7341 16.0512 1.65595 10.9392 1.65595C5.82732 1.65595 1.68332 5.7341 1.68332 10.7648Z"
            fill="currentColor"></path>
    </symbol>

    <symbol id="close" version="1.1" viewBox="5 5 16 16" xmlns="http://www.w3.org/2000/svg"
        xmlns:xlink="http://www.w3.org/1999/xlink">
        <g fill="none">
            <path d="M0 0h24v24h-24Z"></path>
            <path stroke="currentColor" stroke-linecap="round" stroke-linejoin="round" stroke-width="1.5" d="M8 8l8 8">
            </path>
            <path stroke="currentColor" stroke-linecap="round" stroke-linejoin="round" stroke-width="1.5"
                d="M16 8l-8 8"></path>
        </g>
    </symbol>

    <symbol id="close-cercle" xmlns="http://www.w3.org/2000/svg" fill="#000000" viewBox="0 0 32 32" version="1.1">
        <path
            d="M16 0c-8.836 0-16 7.163-16 16s7.163 16 16 16c8.837 0 16-7.163 16-16s-7.163-16-16-16zM16 30.032c-7.72 0-14-6.312-14-14.032s6.28-14 14-14 14 6.28 14 14-6.28 14.032-14 14.032zM21.657 10.344c-0.39-0.39-1.023-0.39-1.414 0l-4.242 4.242-4.242-4.242c-0.39-0.39-1.024-0.39-1.415 0s-0.39 1.024 0 1.414l4.242 4.242-4.242 4.242c-0.39 0.39-0.39 1.024 0 1.414s1.024 0.39 1.415 0l4.242-4.242 4.242 4.242c0.39 0.39 1.023 0.39 1.414 0s0.39-1.024 0-1.414l-4.242-4.242 4.242-4.242c0.391-0.391 0.391-1.024 0-1.414z" />
    </symbol>


    <symbol id="chevron-left" version="1.1" viewBox="0 0 24 24" xmlns="http://www.w3.org/2000/svg"
        xmlns:xlink="http://www.w3.org/1999/xlink">
        <g fill="none">
            <path d="M0 0h24v24h-24Z"></path>
            <path stroke="currentColor" stroke-linecap="round" stroke-linejoin="round" stroke-width="1.5"
                d="M14 8l-4 4 4 4"></path>
        </g>
    </symbol>

    <symbol id="chevron-right" version="1.1" viewBox="0 0 24 24" xmlns="http://www.w3.org/2000/svg"
        xmlns:xlink="http://www.w3.org/1999/xlink">
        <g fill="none">
            <path d="M0 0h24v24h-24Z"></path>
            <path stroke="currentColor" stroke-linecap="round" stroke-linejoin="round" stroke-width="1.5"
                d="M10 16l4-4 -4-4"></path>
        </g>
    </symbol>

    <symbol id="chevron-down" viewBox="0 0 13 8" fill="none" xmlns="http://www.w3.org/2000/svg">
        <path
            d="M12.2729 1.27272C12.2729 1.13322 12.2196 0.993587 12.1131 0.887086C11.9 0.67395 11.5549 0.67395 11.3419 0.887086L6.27294 5.956L1.20402 0.887086C0.990888 0.67395 0.645751 0.67395 0.432751 0.887086C0.21975 1.10022 0.219614 1.44536 0.432751 1.65836L5.8873 7.11291C6.10044 7.32605 6.44558 7.32605 6.65858 7.11291L12.1131 1.65836C12.2196 1.55186 12.2729 1.41222 12.2729 1.27272Z"
            fill="currentColor"></path>
    </symbol>

    <symbol id="f-icon" viewBox="0 0 152 396" fill="none" xmlns="http://www.w3.org/2000/svg">
        <path fill-rule="evenodd" clip-rule="evenodd"
            d="M32.6964 115.619C32.6964 48.4164 79.9247 0 141.923 0L141.802 43.9099C105.769 46.2434 77.1364 77.5066 77.1364 115.619V395.449H32.6964V212.574H0V159.83H32.6964V115.619ZM98.6141 186.231C98.6141 171.167 110.453 158.955 125.059 158.955C139.665 158.955 151.504 171.167 151.504 186.231C151.504 201.295 139.665 213.507 125.059 213.507C110.453 213.507 98.6141 201.295 98.6141 186.231Z"
            fill="currentColor"></path>
    </symbol>

    <symbol id="instagram" viewBox="0 0 31 31" fill="none" xmlns="http://www.w3.org/2000/svg">
        <path fill-rule="evenodd" clip-rule="evenodd"
            d="M7.77051 15.7243C7.77051 11.6061 11.121 8.25574 15.2393 8.25574C19.3576 8.25574 22.708 11.6061 22.708 15.7243C22.708 19.8425 19.3576 23.1929 15.2393 23.1929C11.121 23.1929 7.77051 19.8425 7.77051 15.7243ZM9.52832 15.7243C9.52832 18.8733 12.0903 21.4351 15.2393 21.4351C18.3883 21.4351 20.9502 18.8733 20.9502 15.7243C20.9502 12.5754 18.3883 10.0135 15.2393 10.0135C12.0903 10.0135 9.52832 12.5754 9.52832 15.7243Z"
            fill="currentColor"></path>
        <path fill-rule="evenodd" clip-rule="evenodd"
            d="M8.17871 0.724304H22.2998C26.6776 0.724304 30.2393 4.28593 30.2393 8.66376V22.7849C30.2393 27.1627 26.6776 30.7243 22.2998 30.7243H8.17871C3.80088 30.7243 0.239258 27.1627 0.239258 22.7849V8.66376C0.239258 4.28593 3.80088 0.724304 8.17871 0.724304ZM22.2998 28.9665C25.7084 28.9665 28.4814 26.1934 28.4814 22.7849V8.66376C28.4814 5.25518 25.7084 2.48212 22.2998 2.48212H8.17871C4.77014 2.48212 1.99707 5.25518 1.99707 8.66376V22.7849C1.99707 26.1934 4.77014 28.9665 8.17871 28.9665H22.2998Z"
            fill="currentColor"></path>
        <path
            d="M23.5947 6.48993C23.3633 6.48993 23.1371 6.58368 22.9736 6.74774C22.8096 6.91122 22.7158 7.13739 22.7158 7.36884C22.7158 7.60028 22.8096 7.82704 22.9736 7.99052C23.1371 8.15399 23.3632 8.24774 23.5947 8.24774C23.8262 8.24774 24.0529 8.15399 24.2164 7.99052C24.3799 7.82704 24.4736 7.60028 24.4736 7.36884C24.4736 7.13798 24.3799 6.91122 24.2164 6.74774C24.0529 6.58368 23.8262 6.48993 23.5947 6.48993Z"
            fill="currentColor"></path>
    </symbol>

    <symbol id="twitter" viewBox="0 0 37 31" fill="none" xmlns="http://www.w3.org/2000/svg">
        <path fill-rule="evenodd" clip-rule="evenodd"
            d="M34.6624 4.494C35.1004 4.25093 35.6487 4.34713 35.9779 4.72461C36.3071 5.10216 36.3276 5.6585 36.027 6.05927C35.0376 7.37878 33.8864 8.56657 32.5995 9.59623C32.5999 9.64804 32.6001 9.69971 32.6001 9.75131C32.6001 15.3534 30.4185 20.6202 26.4571 24.5815C22.4959 28.5427 17.2291 30.7243 11.6271 30.7243C7.67697 30.7243 3.82849 29.6201 0.497713 27.5311C0.0916385 27.2764 -0.0934558 26.7812 0.0460551 26.3226C0.185637 25.864 0.614787 25.5574 1.09419 25.5704C1.27143 25.5758 1.45362 25.5785 1.63567 25.5785C4.02923 25.5785 6.37267 25.0898 8.53703 24.1502C7.91777 23.8879 7.32978 23.5446 6.7842 23.124C5.4387 22.0867 4.445 20.6193 3.98626 18.992C3.91371 18.7345 3.94188 18.4633 4.05797 18.2303C2.20285 16.7656 1.03934 14.4986 1.03934 11.9945C1.03934 11.923 1.04033 11.8518 1.04224 11.7806C1.05363 11.3566 1.31638 10.9799 1.71049 10.8229C1.83634 10.7728 1.96792 10.7481 2.09844 10.7474C1.4166 9.56268 1.03941 8.20211 1.03941 6.78945C1.03941 5.25136 1.48024 3.75907 2.31412 2.47389C2.52243 2.15275 2.88766 1.96865 3.2696 1.99208C3.58783 2.01154 3.87683 2.17243 4.06136 2.42448C7.12388 6.49486 11.677 8.96019 16.6958 9.30744C16.6868 9.15094 16.6822 8.99402 16.6822 8.83703C16.6822 4.36369 20.3216 0.724304 24.795 0.724304C26.8135 0.724304 28.7696 1.48769 30.2556 2.83764C31.516 2.47898 32.7333 1.97693 33.882 1.34138C34.2565 1.13427 34.7188 1.17214 35.0546 1.43757C35.3903 1.70307 35.5338 2.14419 35.4185 2.55635C35.2199 3.26657 34.926 3.93801 34.5484 4.55565C34.5866 4.53555 34.6246 4.51495 34.6624 4.494ZM30.4667 9.13551C30.4506 8.79265 30.6016 8.45381 30.8874 8.238C31.2634 7.95395 31.6272 7.65525 31.9783 7.34261C31.763 7.34615 31.549 7.34091 31.3156 7.32569C30.8547 7.29561 30.4663 6.97115 30.3545 6.52303C30.2428 6.07498 30.4336 5.60612 30.8264 5.3632C31.2 5.1321 31.5428 4.86284 31.8504 4.56117C31.3077 4.74832 30.7566 4.9114 30.1989 5.04971C29.8254 5.14222 29.4312 5.0255 29.1683 4.74478C28.023 3.52139 26.4698 2.84762 24.795 2.84762C21.4924 2.84762 18.8056 5.53435 18.8056 8.83688C18.8056 9.28904 18.8561 9.73928 18.9555 10.1752C19.0275 10.4903 18.952 10.821 18.7504 11.0736C18.5489 11.3261 18.2435 11.4732 17.9204 11.4732H17.9201C14.808 11.4722 11.8343 10.7584 9.08149 9.35168C6.96207 8.26858 5.03773 6.78358 3.44082 5.00802C3.25728 5.5793 3.16279 6.17931 3.16279 6.78938C3.16279 8.89323 4.30499 10.8391 6.14376 11.8675C6.56619 12.1038 6.77535 12.5958 6.6524 13.0639C6.52981 13.5306 6.10781 13.8559 5.62557 13.8559H5.62146C4.85284 13.853 4.09293 13.739 3.36494 13.5204C3.93955 15.6436 5.68743 17.3106 7.93695 17.7164C8.44254 17.8076 8.81025 18.2477 8.81018 18.7614C8.81011 19.2751 8.44219 19.7151 7.93659 19.8061C7.53179 19.879 7.11864 19.9206 6.70577 19.9302C7.74853 21.5779 9.5885 22.641 11.6053 22.6485C12.0753 22.6503 12.4883 22.9609 12.6203 23.4121C12.7524 23.8631 12.5721 24.3474 12.1771 24.6023C9.99004 26.0141 7.55919 26.9624 5.01699 27.4084C7.11701 28.194 9.35329 28.6009 11.6272 28.6009C22.0208 28.6009 30.4767 20.1451 30.4767 9.75139C30.4767 9.54746 30.4734 9.34036 30.4667 9.13551Z"
            fill="currentColor"></path>
    </symbol>

    <symbol id="facebook" viewBox="0 0 30 31" fill="none" xmlns="http://www.w3.org/2000/svg">
        <path
            d="M29.9998 15.8164C29.9998 7.48016 23.2836 0.722656 14.9998 0.722656C6.71234 0.724531 -0.00390625 7.48016 -0.00390625 15.8183C-0.00390625 23.3502 5.48234 29.5939 12.6523 30.7264V20.1795H8.84609V15.8183H12.6561V12.4902C12.6561 8.70828 14.8967 6.61953 18.3223 6.61953C19.9648 6.61953 21.6805 6.91391 21.6805 6.91391V10.6264H19.7886C17.9267 10.6264 17.3455 11.7908 17.3455 12.9852V15.8164H21.5042L20.8405 20.1777H17.3436V30.7245C24.5136 29.592 29.9998 23.3483 29.9998 15.8164Z"
            fill="currentColor"></path>
    </symbol>


    <symbol id="tiktok" viewBox="0 0 27 31" fill="none" xmlns="http://www.w3.org/2000/svg">
        <path fill-rule="evenodd" clip-rule="evenodd"
            d="M19.8839 1.60321C19.8839 4.75221 22.4458 7.31417 25.5947 7.31417C26.0801 7.31417 26.4736 7.70768 26.4737 8.19307V12.9001C26.4737 13.3855 26.0802 13.779 25.5948 13.779C23.5796 13.779 21.6333 13.2922 19.8839 12.3597V20.9021C19.8839 26.3181 15.4776 30.7243 10.0616 30.7243C4.64551 30.7243 0.239316 26.3181 0.239258 20.9021C0.239258 15.486 4.64551 11.0797 10.0615 11.0797C10.5469 11.0797 10.9404 11.4732 10.9404 11.9586V16.6657C10.9404 17.1511 10.5469 17.5446 10.0615 17.5446C8.21023 17.5446 6.70414 19.0507 6.70414 20.9021C6.70414 22.7533 8.21023 24.2594 10.0615 24.2594C11.9128 24.2594 13.419 22.7533 13.419 20.9021V1.60321C13.419 1.11782 13.8125 0.724304 14.2979 0.724304H19.005C19.4904 0.724304 19.8839 1.11782 19.8839 1.60321ZM19.5182 10.0658C21.0577 11.1733 22.8394 11.8288 24.7157 11.9849V9.02053C21.2987 8.61811 18.5799 5.8993 18.1774 2.48212H15.1768V20.9021C15.1768 23.7226 12.8821 26.0172 10.0615 26.0172C7.24098 26.0172 4.94633 23.7226 4.94633 20.9021C4.94633 18.3811 6.77926 16.2801 9.1826 15.8624V12.8851C5.14771 13.3244 1.99707 16.7522 1.99707 20.9021C1.99707 25.3488 5.61477 28.9665 10.0615 28.9665C14.5083 28.9665 18.1261 25.3488 18.1261 20.9021V10.7793C18.1261 10.4495 18.3107 10.1475 18.6041 9.99712C18.8976 9.84676 19.2506 9.87331 19.5182 10.0658Z"
            fill="currentColor"></path>
    </symbol>

    <symbol id="whatsapp" xmlns="http://www.w3.org/2000/svg" viewBox="0 0 24 24">
        <path
            d="M10.92713,10.9315a6.55544,6.55544,0,0,0,2.14139,2.1414l.82185-.49312a1,1,0,0,1,1.13919.07662l1.59511,1.27607a1,1,0,0,1,.07641,1.494l-.7211.709a3.001,3.001,0,0,1-3.70991.4003,16.20451,16.20451,0,0,1-4.80579-4.80581A3.001,3.001,0,0,1,7.86458,8.02l.709-.72111a1,1,0,0,1,1.49395.07641l1.27609,1.59512a1,1,0,0,1,.07662,1.13918Z"
            fill="none" stroke="currentColor" stroke-linecap="round" stroke-linejoin="round" stroke-width="1.5"></path>
        <path
            d="M6.8675,19.98631l-2.697.45072A.52778.52778,0,0,1,3.563,19.8295l.4506-2.69713A9.51765,9.51765,0,1,1,6.8675,19.98631Z"
            fill="none" stroke="currentColor" stroke-linecap="round" stroke-linejoin="round" stroke-width="1.5"></path>
    </symbol>

    <symbol id="plus" viewBox="0 0 14 14" fill="none" xmlns="http://www.w3.org/2000/symbol">
        <path
            d="M0 7C0 6.57045 0.348223 6.22222 0.777778 6.22222H13.2222C13.6518 6.22222 14 6.57045 14 7C14 7.42955 13.6518 7.77778 13.2222 7.77778H0.777777C0.348222 7.77778 0 7.42955 0 7Z"
            fill="currentColor"></path>
        <path fill-rule="evenodd" clip-rule="evenodd"
            d="M7 0C7.42955 0 7.77778 0.348223 7.77778 0.777778V13.2222C7.77778 13.6518 7.42955 14 7 14C6.57045 14 6.22222 13.6518 6.22222 13.2222V0.777777C6.22222 0.348222 6.57045 0 7 0Z"
            fill="currentColor"></path>
    </symbol>

    <symbol id="minus" viewBox="0 0 14 2" fill="none" xmlns="http://www.w3.org/2000/svg">
        <path
            d="M0 0.999946C0 0.570391 0.348223 0.222168 0.777778 0.222168H13.2222C13.6518 0.222168 14 0.570391 14 0.999946C14 1.4295 13.6518 1.77772 13.2222 1.77772H0.777777C0.348222 1.77772 0 1.4295 0 0.999946Z"
            fill="currentColor"></path>
    </symbol>

    <symbol id="share" viewBox="0 0 27 29" fill="none" xmlns="http://www.w3.org/2000/svg">
        <path
            d="M22.0002 19.0002C21.2517 19.004 20.5135 19.1757 19.8403 19.5029C19.167 19.83 18.5758 20.3041 18.1102 20.8902L10.8002 16.3202C11.0666 15.4604 11.0666 14.54 10.8002 13.6802L18.1102 9.1102C18.8521 10.0289 19.8953 10.6554 21.0549 10.8786C22.2145 11.1018 23.4157 10.9074 24.4457 10.3298C25.4757 9.75222 26.268 8.8287 26.6823 7.72285C27.0966 6.61701 27.1061 5.40022 26.7091 4.28804C26.3122 3.17585 25.5344 2.24006 24.5135 1.64643C23.4927 1.05281 22.2947 0.839654 21.1317 1.04474C19.9688 1.24983 18.9159 1.85991 18.1597 2.76692C17.4035 3.67393 16.9928 4.81933 17.0002 6.0002C17.0049 6.44738 17.0722 6.8917 17.2002 7.3202L9.89018 11.8902C9.24483 11.0778 8.36272 10.4863 7.36614 10.1976C6.36955 9.90895 5.30785 9.93747 4.3282 10.2792C3.34855 10.621 2.49947 11.259 1.89867 12.1049C1.29787 12.9508 0.975098 13.9627 0.975098 15.0002C0.975098 16.0378 1.29787 17.0496 1.89867 17.8955C2.49947 18.7414 3.34855 19.3794 4.3282 19.7212C5.30785 20.0629 6.36955 20.0915 7.36614 19.8028C8.36272 19.5142 9.24483 18.9226 9.89018 18.1102L17.2002 22.6802C17.0722 23.1087 17.0049 23.553 17.0002 24.0002C17.0002 24.9891 17.2934 25.9558 17.8428 26.7781C18.3922 27.6003 19.1731 28.2412 20.0868 28.6196C21.0004 28.998 22.0057 29.0971 22.9756 28.9041C23.9455 28.7112 24.8365 28.235 25.5357 27.5357C26.235 26.8365 26.7112 25.9456 26.9041 24.9757C27.097 24.0058 26.998 23.0004 26.6196 22.0868C26.2411 21.1732 25.6003 20.3923 24.778 19.8429C23.9558 19.2934 22.9891 19.0002 22.0002 19.0002ZM22.0002 3.0002C22.5935 3.0002 23.1735 3.17615 23.6669 3.5058C24.1602 3.83544 24.5448 4.30398 24.7718 4.85215C24.9989 5.40033 25.0583 6.00353 24.9425 6.58547C24.8268 7.16742 24.5411 7.70197 24.1215 8.12152C23.7019 8.54108 23.1674 8.8268 22.5855 8.94256C22.0035 9.05832 21.4003 8.99891 20.8521 8.77184C20.304 8.54478 19.8354 8.16026 19.5058 7.66691C19.1761 7.17357 19.0002 6.59355 19.0002 6.0002C19.0002 5.20455 19.3163 4.44149 19.8789 3.87888C20.4415 3.31627 21.2045 3.0002 22.0002 3.0002ZM6.00018 18.0002C5.40684 18.0002 4.82682 17.8243 4.33347 17.4946C3.84013 17.165 3.45561 16.6964 3.22855 16.1483C3.00148 15.6001 2.94207 14.9969 3.05783 14.4149C3.17358 13.833 3.45931 13.2984 3.87886 12.8789C4.29842 12.4593 4.83297 12.1736 5.41491 12.0578C5.99686 11.9421 6.60006 12.0015 7.14823 12.2286C7.69641 12.4556 8.16495 12.8401 8.49459 13.3335C8.82424 13.8268 9.00018 14.4069 9.00018 15.0002C9.00018 15.7959 8.68411 16.5589 8.1215 17.1215C7.5589 17.6841 6.79583 18.0002 6.00018 18.0002ZM22.0002 27.0002C21.4068 27.0002 20.8268 26.8243 20.3335 26.4946C19.8401 26.165 19.4556 25.6964 19.2285 25.1483C19.0015 24.6001 18.9421 23.9969 19.0578 23.4149C19.1736 22.833 19.4593 22.2984 19.8789 21.8789C20.2984 21.4593 20.833 21.1736 21.4149 21.0578C21.9969 20.9421 22.6001 21.0015 23.1482 21.2286C23.6964 21.4556 24.1649 21.8401 24.4946 22.3335C24.8242 22.8268 25.0002 23.4069 25.0002 24.0002C25.0002 24.7959 24.6841 25.5589 24.1215 26.1215C23.5589 26.6841 22.7958 27.0002 22.0002 27.0002Z"
            fill="currentColor"></path>
    </symbol>

    <symbol id="flormar-mobile" width="20" height="50" viewBox="0 0 20 50" fill="none"
        xmlns="http://www.w3.org/2000/svg">
        <path fill-rule="evenodd" clip-rule="evenodd"
            d="M19.9541 23.5469C19.9541 21.6422 18.3948 20.0981 16.4711 20.0981C14.5475 20.0981 12.9882 21.6422 12.9882 23.5469C12.9882 25.4515 14.5475 26.9956 16.4711 26.9956C18.3948 26.9956 19.9541 25.4515 19.9541 23.5469Z"
            fill="#E45A80"></path>
        <path fill-rule="evenodd" clip-rule="evenodd"
            d="M4.30635 50H10.1594V14.6187C10.1594 9.79983 13.9305 5.84696 18.6763 5.55191L18.6922 0C10.5266 0 4.30635 6.12171 4.30635 14.6187V20.2087H0V26.8776H4.30635V50Z"
            fill="#E45A80"></path>
    </symbol>
    <symbol id="chosen" xmlns="http://www.w3.org/2000/svg" viewBox="0 0 36 36">
        <path fill="#FFAC33"
            d="M34.347 16.893l-8.899-3.294-3.323-10.891c-.128-.42-.517-.708-.956-.708-.439 0-.828.288-.956.708l-3.322 10.891-8.9 3.294c-.393.146-.653.519-.653.938 0 .418.26.793.653.938l8.895 3.293 3.324 11.223c.126.424.516.715.959.715.442 0 .833-.291.959-.716l3.324-11.223 8.896-3.293c.391-.144.652-.518.652-.937 0-.418-.261-.792-.653-.938z" />
        <path fill="#FFCC4D"
            d="M14.347 27.894l-2.314-.856-.9-3.3c-.118-.436-.513-.738-.964-.738-.451 0-.846.302-.965.737l-.9 3.3-2.313.856c-.393.145-.653.52-.653.938 0 .418.26.793.653.938l2.301.853.907 3.622c.112.444.511.756.97.756.459 0 .858-.312.97-.757l.907-3.622 2.301-.853c.393-.144.653-.519.653-.937 0-.418-.26-.793-.653-.937zM10.009 6.231l-2.364-.875-.876-2.365c-.145-.393-.519-.653-.938-.653-.418 0-.792.26-.938.653l-.875 2.365-2.365.875c-.393.146-.653.52-.653.938 0 .418.26.793.653.938l2.365.875.875 2.365c.146.393.52.653.938.653.418 0 .792-.26.938-.653l.875-2.365 2.365-.875c.393-.146.653-.52.653-.938 0-.418-.26-.792-.653-.938z" />
    </symbol>

    <symbol id="bag" viewBox="0 0 26 30" fill="none" xmlns="http://www.w3.org/2000/svg">
        <path
            d="M18.1662 12V6C18.1662 4.67392 17.6395 3.40215 16.7018 2.46447C15.7641 1.52678 14.4923 1 13.1662 1C11.8402 1 10.5684 1.52678 9.63071 2.46447C8.69302 3.40215 8.16624 4.67392 8.16624 6V12M23.3076 9.34267L24.9916 25.3427C25.0849 26.2293 24.3916 27 23.4996 27H2.83291C2.62252 27.0002 2.41443 26.9562 2.22217 26.8708C2.02991 26.7853 1.85777 26.6604 1.71694 26.5041C1.5761 26.3478 1.46973 26.1636 1.40471 25.9635C1.3397 25.7634 1.31751 25.5519 1.33957 25.3427L3.02491 9.34267C3.06378 8.97408 3.23774 8.63294 3.51324 8.38501C3.78874 8.13708 4.14627 7.99993 4.51691 8H21.8156C22.5836 8 23.2276 8.58 23.3076 9.34267ZM8.66624 12C8.66624 12.1326 8.61356 12.2598 8.51979 12.3536C8.42603 12.4473 8.29885 12.5 8.16624 12.5C8.03363 12.5 7.90645 12.4473 7.81269 12.3536C7.71892 12.2598 7.66624 12.1326 7.66624 12C7.66624 11.8674 7.71892 11.7402 7.81269 11.6464C7.90645 11.5527 8.03363 11.5 8.16624 11.5C8.29885 11.5 8.42603 11.5527 8.51979 11.6464C8.61356 11.7402 8.66624 11.8674 8.66624 12ZM18.6662 12C18.6662 12.1326 18.6136 12.2598 18.5198 12.3536C18.426 12.4473 18.2988 12.5 18.1662 12.5C18.0336 12.5 17.9065 12.4473 17.8127 12.3536C17.7189 12.2598 17.6662 12.1326 17.6662 12C17.6662 11.8674 17.7189 11.7402 17.8127 11.6464C17.9065 11.5527 18.0336 11.5 18.1662 11.5C18.2988 11.5 18.426 11.5527 18.5198 11.6464C18.6136 11.7402 18.6662 11.8674 18.6662 12Z"
            stroke="currentColor" stroke-width="1" stroke-linecap="round" stroke-linejoin="round"></path>
    </symbol>

    <symbol id="add-bag" viewBox="0 0 26 30" fill="none" xmlns="http://www.w3.org/2000/svg">
        <path
            d="M18.1662 12V6C18.1662 4.67392 17.6395 3.40215 16.7018 2.46447C15.7641 1.52678 14.4923 1 13.1662 1C11.8402 1 10.5684 1.52678 9.63071 2.46447C8.69302 3.40215 8.16624 4.67392 8.16624 6V12M23.3076 9.34267L24.9916 25.3427C25.0849 26.2293 24.3916 27 23.4996 27H2.83291C2.62252 27.0002 2.41443 26.9562 2.22217 26.8708C2.02991 26.7853 1.85777 26.6604 1.71694 26.5041C1.5761 26.3478 1.46973 26.1636 1.40471 25.9635C1.3397 25.7634 1.31751 25.5519 1.33957 25.3427L3.02491 9.34267C3.06378 8.97408 3.23774 8.63294 3.51324 8.38501C3.78874 8.13708 4.14627 7.99993 4.51691 8H21.8156C22.5836 8 23.2276 8.58 23.3076 9.34267ZM8.66624 12C8.66624 12.1326 8.61356 12.2598 8.51979 12.3536C8.42603 12.4473 8.29885 12.5 8.16624 12.5C8.03363 12.5 7.90645 12.4473 7.81269 12.3536C7.71892 12.2598 7.66624 12.1326 7.66624 12C7.66624 11.8674 7.71892 11.7402 7.81269 11.6464C7.90645 11.5527 8.03363 11.5 8.16624 11.5C8.29885 11.5 8.42603 11.5527 8.51979 11.6464C8.61356 11.7402 8.66624 11.8674 8.66624 12ZM18.6662 12C18.6662 12.1326 18.6136 12.2598 18.5198 12.3536C18.426 12.4473 18.2988 12.5 18.1662 12.5C18.0336 12.5 17.9065 12.4473 17.8127 12.3536C17.7189 12.2598 17.6662 12.1326 17.6662 12C17.6662 11.8674 17.7189 11.7402 17.8127 11.6464C17.9065 11.5527 18.0336 11.5 18.1662 11.5C18.2988 11.5 18.426 11.5527 18.5198 11.6464C18.6136 11.7402 18.6662 11.8674 18.6662 12Z"
            stroke="currentColor" stroke-width="1" stroke-linecap="round" stroke-linejoin="round"></path>
        <line stroke="currentColor" x1="12.3" y1="14.7" x2="12.3" y2="21.3" />
        <line stroke="currentColor" x1="9" y1="18" x2="15.6" y2="18" />
    </symbol>

    <symbol id="remove-bag" viewBox="0 0 26 30" fill="none" xmlns="http://www.w3.org/2000/svg">
        <path
            d="M18.1662 12V6C18.1662 4.67392 17.6395 3.40215 16.7018 2.46447C15.7641 1.52678 14.4923 1 13.1662 1C11.8402 1 10.5684 1.52678 9.63071 2.46447C8.69302 3.40215 8.16624 4.67392 8.16624 6V12M23.3076 9.34267L24.9916 25.3427C25.0849 26.2293 24.3916 27 23.4996 27H2.83291C2.62252 27.0002 2.41443 26.9562 2.22217 26.8708C2.02991 26.7853 1.85777 26.6604 1.71694 26.5041C1.5761 26.3478 1.46973 26.1636 1.40471 25.9635C1.3397 25.7634 1.31751 25.5519 1.33957 25.3427L3.02491 9.34267C3.06378 8.97408 3.23774 8.63294 3.51324 8.38501C3.78874 8.13708 4.14627 7.99993 4.51691 8H21.8156C22.5836 8 23.2276 8.58 23.3076 9.34267ZM8.66624 12C8.66624 12.1326 8.61356 12.2598 8.51979 12.3536C8.42603 12.4473 8.29885 12.5 8.16624 12.5C8.03363 12.5 7.90645 12.4473 7.81269 12.3536C7.71892 12.2598 7.66624 12.1326 7.66624 12C7.66624 11.8674 7.71892 11.7402 7.81269 11.6464C7.90645 11.5527 8.03363 11.5 8.16624 11.5C8.29885 11.5 8.42603 11.5527 8.51979 11.6464C8.61356 11.7402 8.66624 11.8674 8.66624 12ZM18.6662 12C18.6662 12.1326 18.6136 12.2598 18.5198 12.3536C18.426 12.4473 18.2988 12.5 18.1662 12.5C18.0336 12.5 17.9065 12.4473 17.8127 12.3536C17.7189 12.2598 17.6662 12.1326 17.6662 12C17.6662 11.8674 17.7189 11.7402 17.8127 11.6464C17.9065 11.5527 18.0336 11.5 18.1662 11.5C18.2988 11.5 18.426 11.5527 18.5198 11.6464C18.6136 11.7402 18.6662 11.8674 18.6662 12Z"
            stroke="currentColor" stroke-width="1" stroke-linecap="round" stroke-linejoin="round"></path>

        <line stroke="currentColor" x1="9" y1="18" x2="15.6" y2="18" />
    </symbol>
    <symbol id="user" xmlns="http://www.w3.org/2000/svg" viewBox="0 0 24 24" fill="none">
        <path
            d="M12 12C14.7614 12 17 9.76142 17 7C17 4.23858 14.7614 2 12 2C9.23858 2 7 4.23858 7 7C7 9.76142 9.23858 12 12 12Z"
            stroke="currentColor" />
        <path
            d="M12.0002 14.5C6.99016 14.5 2.91016 17.86 2.91016 22C2.91016 22.28 3.13016 22.5 3.41016 22.5H20.5902C20.8702 22.5 21.0902 22.28 21.0902 22C21.0902 17.86 17.0102 14.5 12.0002 14.5Z"
            stroke="currentColor" />
    </symbol>

    <symbol id="min" xmlns="http://www.w3.org/2000/svg" viewBox="0 0 24 24" fill="none">
        <path fill-rule="evenodd" clip-rule="evenodd"
            d="M4 12C4 11.4477 4.44772 11 5 11H19C19.5523 11 20 11.4477 20 12C20 12.5523 19.5523 13 19 13H5C4.44772 13 4 12.5523 4 12Z"
            fill="currentColor" />
    </symbol>
    <symbol id="add" xmlns="http://www.w3.org/2000/svg" viewBox="0 0 24 24" fill="none">
        <path d="M6 12H18M12 6V18" stroke="currentColor" stroke-width="2" stroke-linecap="round"
            stroke-linejoin="round" />
    </symbol>

    <svg xmlns="http://www.w3.org/2000/svg" id="heart" viewBox="0 3 24 16">
        <path
            d="M15.6001 3.91998C14.268 3.92397 12.9849 4.42297 12 5.32001C11.2277 4.61746 10.2676 4.15485 9.23679 3.98858C8.20602 3.82231 7.1491 3.95955 6.19498 4.3836C5.24087 4.80765 4.43081 5.50018 3.8635 6.37671C3.29619 7.25324 2.99614 8.27591 3.00004 9.32C3.00004 15.77 12 20.14 12 20.14C12 20.14 21 15.77 21 9.32C21 7.88784 20.4311 6.51434 19.4184 5.50165C18.4057 4.48895 17.0322 3.91998 15.6001 3.91998Z"
            stroke="currentColor" stroke-width="0.8" stroke-linecap="round" stroke-linejoin="round" />
    </svg>
    <symbol xmlns="http://www.w3.org/2000/svg" id="trash" viewBox="0 0 24 24" fill="none">
        <path d="M20.5001 6H3.5" stroke="currentColor" stroke-width="1.5" stroke-linecap="round" />
        <path
            d="M18.8332 8.5L18.3732 15.3991C18.1962 18.054 18.1077 19.3815 17.2427 20.1907C16.3777 21 15.0473 21 12.3865 21H11.6132C8.95235 21 7.62195 21 6.75694 20.1907C5.89194 19.3815 5.80344 18.054 5.62644 15.3991L5.1665 8.5"
            stroke="currentColor" stroke-width="1.5" stroke-linecap="round" />
        <path d="M9.5 11L10 16" stroke="currentColor" stroke-width="1.5" stroke-linecap="round" />
        <path d="M14.5 11L14 16" stroke="currentColor" stroke-width="1.5" stroke-linecap="round" />
        <path
            d="M6.5 6C6.55588 6 6.58382 6 6.60915 5.99936C7.43259 5.97849 8.15902 5.45491 8.43922 4.68032C8.44784 4.65649 8.45667 4.62999 8.47434 4.57697L8.57143 4.28571C8.65431 4.03708 8.69575 3.91276 8.75071 3.8072C8.97001 3.38607 9.37574 3.09364 9.84461 3.01877C9.96213 3 10.0932 3 10.3553 3H13.6447C13.9068 3 14.0379 3 14.1554 3.01877C14.6243 3.09364 15.03 3.38607 15.2493 3.8072C15.3043 3.91276 15.3457 4.03708 15.4286 4.28571L15.5257 4.57697C15.5433 4.62992 15.5522 4.65651 15.5608 4.68032C15.841 5.45491 16.5674 5.97849 17.3909 5.99936C17.4162 6 17.4441 6 17.5 6"
            stroke="currentColor" stroke-width="1.5" />
    </symbol>

    <symbol id="chevron-down" viewBox="0 0 13 8" fill="none" xmlns="http://www.w3.org/2000/svg">
        <path
            d="M12.2729 1.27272C12.2729 1.13322 12.2196 0.993587 12.1131 0.887086C11.9 0.67395 11.5549 0.67395 11.3419 0.887086L6.27294 5.956L1.20402 0.887086C0.990888 0.67395 0.645751 0.67395 0.432751 0.887086C0.21975 1.10022 0.219614 1.44536 0.432751 1.65836L5.8873 7.11291C6.10044 7.32605 6.44558 7.32605 6.65858 7.11291L12.1131 1.65836C12.2196 1.55186 12.2729 1.41222 12.2729 1.27272Z"
            fill="currentColor"></path>
    </symbol>

    <symbol xmlns="http://www.w3.org/2000/svg" id="arrow" viewBox="0 0 24 24" fill="none">
        <path d="M6 12H18M6 12L11 7M6 12L11 17" stroke="currentColor" stroke-width="2" stroke-linecap="round"
            stroke-linejoin="round" />
    </symbol>

    <symbol id="upload" xmlns="http://www.w3.org/2000/svg" viewBox="0 0 48 48" aria-hidden="true">
        <style>
            @supports (animation: grow .5s cubic-bezier(.25, .25, .25, 1) forwards) {
                .tick {
                    stroke-opacity: 0;
                    stroke-dasharray: 29px;
                    stroke-dashoffset: 29px;
                    animation: draw .5s cubic-bezier(.25, .25, .25, 1) forwards;
                    animation-delay: .6s
                }

                .circle {
                    fill-opacity: 0;
                    stroke: currentColor;
                    stroke-width: 16px;
                    transform-origin: center;
                    transform: scale(0);
                    animation: grow 1s cubic-bezier(.25, .25, .25, 1.25) forwards;
                }
            }

            @keyframes grow {
                60% {
                    transform: scale(.8);
                    stroke-width: 4px;
                    fill-opacity: 0;
                }

                100% {
                    transform: scale(.9);
                    stroke-width: 8px;
                    fill-opacity: 1;
                    fill: currentColor;
                }
            }

            @keyframes draw {

                0%,
                100% {
                    stroke-opacity: 1;
                }

                100% {
                    stroke-dashoffset: 0;
                }
            }

            :root {
                --theme-color: var(--color-purple);
            }

            body {
                height: 100vh;
                display: flex;
                justify-content: center;
                align-items: center;
            }
        </style>

        <circle class="circle" fill="currentColor" cx="24" cy="24" r="22" />
        <path class="tick" fill="none" stroke="#f34b7f" stroke-width="6" stroke-linecap="round" stroke-linejoin="round"
            stroke-miterlimit="10" d="M14 27l5.917 4.917L34 17" />
    </symbol>

    <symbol id="arrow-up" xmlns="http://www.w3.org/2000/svg" viewBox="0 0 24 24" fill="none">
        <path d="M12 4V20M12 4L8 8M12 4L16 8" stroke="#000000" stroke-width="2" stroke-linecap="round"
            stroke-linejoin="round" />
    </symbol>

    <symbol id="download" viewBox="0 0 24 24" xmlns="http://www.w3.org/2000/svg">
        <style>
            .spinner_5nOS {
                transform-origin: center;
                fill: currentColor;

                animation: spinner_sEAn .75s infinite linear
            }

            @keyframes spinner_sEAn {
                100% {
                    transform: rotate(360deg)
                }
            }
        </style>
        <path d="M12,1A11,11,0,1,0,23,12,11,11,0,0,0,12,1Zm0,19a8,8,0,1,1,8-8A8,8,0,0,1,12,20Z" fill="currentColor"
            opacity=".25" />
        <path
            d="M10.72,19.9a8,8,0,0,1-6.5-9.79A7.77,7.77,0,0,1,10.4,4.16a8,8,0,0,1,9.49,6.52A1.54,1.54,0,0,0,21.38,12h.13a1.37,1.37,0,0,0,1.38-1.54,11,11,0,1,0-12.7,12.39A1.54,1.54,0,0,0,12,21.34h0A1.47,1.47,0,0,0,10.72,19.9Z"
            class="spinner_5nOS" />
    </symbol>

    <symbol id="error" xmlns="http://www.w3.org/2000/svg" viewBox="0 0 24 24" fill="none">
        <path d="M12 8V12" stroke="currentColor" stroke-width="2" stroke-linecap="round" stroke-linejoin="round" />
        <path d="M12 16.0195V16" stroke="currentColor" stroke-width="2" stroke-linecap="round"
            stroke-linejoin="round" />
        <circle cx="12" cy="12" r="10" stroke="currentColor" stroke-width="2" stroke-linecap="round"
            stroke-linejoin="round" />
    </symbol>

    <symbol id="store" xmlns="http://www.w3.org/2000/svg" viewBox="0 0 64 64" stroke-width="3" stroke="#000000"
        fill="none">
        <path d="M52,27.18V52.76a2.92,2.92,0,0,1-3,2.84H15a2.92,2.92,0,0,1-3-2.84V27.17" />
        <polyline points="26.26 55.52 26.26 38.45 37.84 38.45 37.84 55.52" />
        <path
            d="M8.44,19.18s-1.1,7.76,6.45,8.94a7.17,7.17,0,0,0,6.1-2A7.43,7.43,0,0,0,32,26a7.4,7.4,0,0,0,5,2.49,11.82,11.82,0,0,0,5.9-2.15,6.66,6.66,0,0,0,4.67,2.15,8,8,0,0,0,7.93-9.3L50.78,9.05a1,1,0,0,0-.94-.65H14a1,1,0,0,0-.94.66Z" />
        <line x1="8.44" y1="19.18" x2="55.54" y2="19.18" />
        <line x1="21.04" y1="19.18" x2="21.04" y2="8.4" />
        <line x1="32.05" y1="19.18" x2="32.05" y2="8.4" />
        <line x1="43.01" y1="19.18" x2="43.01" y2="8.4" />
    </symbol>

</svg>