<svg width="18" height="18" viewBox="0 0 22 22" fill="none" xmlns="http://www.w3.org/2000/svg">
    <g>
        <circle cx="11" cy="11" r="10.5" stroke="#788995" />
        <path
            d="M11.066 13.92L11.052 11.26L11.43 11.246C11.7567 11.246 12.0413 11.176 12.284 11.036C12.536 10.896 12.732 10.7047 12.872 10.462C13.012 10.2193 13.082 9.94867 13.082 9.65C13.082 9.342 13.012 9.07133 12.872 8.838C12.7413 8.60467 12.55 8.42267 12.298 8.292C12.0553 8.16133 11.766 8.096 11.43 8.096C10.982 8.096 10.5947 8.208 10.268 8.432C9.94133 8.656 9.68 8.97333 9.484 9.384L8.56 8.614C8.83067 8.06333 9.218 7.634 9.722 7.326C10.2353 7.018 10.8233 6.864 11.486 6.864C12.0553 6.864 12.5593 6.98067 12.998 7.214C13.4367 7.438 13.7773 7.75533 14.02 8.166C14.2627 8.56733 14.384 9.034 14.384 9.566C14.384 10.0513 14.272 10.4947 14.048 10.896C13.8333 11.288 13.5253 11.6147 13.124 11.876C12.732 12.128 12.2653 12.2913 11.724 12.366L12.27 11.806L12.158 13.92H11.066ZM11.598 17.14C11.3367 17.14 11.1173 17.0513 10.94 16.874C10.772 16.6967 10.688 16.4773 10.688 16.216C10.688 15.9547 10.772 15.74 10.94 15.572C11.1173 15.3947 11.3367 15.306 11.598 15.306C11.8593 15.306 12.074 15.3947 12.242 15.572C12.4193 15.74 12.508 15.9547 12.508 16.216C12.508 16.4773 12.4193 16.6967 12.242 16.874C12.074 17.0513 11.8593 17.14 11.598 17.14Z"
            fill="#788995" />
    </g>

</svg>