<svg width="30" height="20" viewBox="0 0 30 20" fill="none" xmlns="http://www.w3.org/2000/svg">
    <g clip-path="url(#clip0_0_49)">
        <g clip-path="url(#clip1_0_49)">
            <g clip-path="url(#clip2_0_49)">
                <rect y="5.29411" width="30" height="9.41177" fill="#F9F9F9" />
                <path d="M1.25 0H28.75C29.4375 0 30 0.529412 30 1.17647V5.29412H0V1.17647C0 0.529412 0.5625 0 1.25 0Z"
                    fill="#09599E" />
                <path
                    d="M0 14.7059H30V18.8235C30 19.4706 29.4375 20 28.75 20H1.25C0.5625 20 0 19.4706 0 18.8235V14.7059Z"
                    fill="#E59703" />
                <path opacity="0.05"
                    d="M1.25 19.9706C0.5625 19.9706 0 19.4412 0 18.7941V1.17647C0 0.529412 0.5625 0 1.25 0H28.75C29.4375 0 30 0.529412 30 1.17647"
                    fill="white" />
                <g clip-path="url(#clip3_0_49)">
                    <path d="M11.5938 12.4706L12.5 7.5H13.9375L13.0312 12.4706H11.5938Z" fill="#00589F" />
                    <path
                        d="M18.25 7.64706C17.9688 7.55882 17.5312 7.44118 16.9688 7.44118C15.5312 7.44118 14.5312 8.11765 14.5312 9.08824C14.5312 9.79412 15.25 10.2059 15.7812 10.4412C16.3438 10.6765 16.5312 10.8529 16.5312 11.0588C16.5312 11.3824 16.0938 11.5588 15.6562 11.5588C15.0938 11.5588 14.7812 11.4706 14.3125 11.2941L14.125 11.1765L13.9375 12.2941C14.2812 12.4412 14.9062 12.5588 15.5312 12.5588C17.0312 12.5588 18.0312 11.8824 18.0312 10.8529C18.0312 10.2941 17.6562 9.85294 16.8125 9.5C16.3125 9.26471 16 9.11765 16 8.88235C16 8.67647 16.25 8.44118 16.8125 8.44118C17.2812 8.44118 17.625 8.52941 17.875 8.61765L18 8.67647L18.25 7.64706"
                        fill="#00589F" />
                    <path fill-rule="evenodd" clip-rule="evenodd"
                        d="M20.8125 7.5294H21.9375L23.125 12.5H21.7812C21.7812 12.5 21.625 11.9412 21.5938 11.7647H19.75C19.6875 11.8823 19.4375 12.5 19.4375 12.5H17.9375L20.0625 7.94117C20.2188 7.61764 20.4688 7.5294 20.8125 7.5294ZM20.7188 9.32352C20.7188 9.32352 20.2812 10.4118 20.1562 10.7059V10.7353H21.3438C21.2812 10.4706 21 9.29411 21 9.29411L20.9062 8.85293C20.8438 9.0294 20.7188 9.32352 20.7188 9.32352Z"
                        fill="#00589F" />
                    <path
                        d="M10.375 7.52941L8.96875 10.9118L8.8125 10.2353C8.5625 9.44118 7.71875 8.58824 6.8125 8.14706L8.125 12.4706H9.65625L11.9375 7.5H10.375"
                        fill="#00589F" />
                    <path
                        d="M7.65625 7.5H5.34375L5.3125 7.61765C7.125 8.02941 8.3125 9.02941 8.8125 10.2059L8.3125 7.94118C8.25 7.61765 7.96875 7.52941 7.65625 7.5"
                        fill="#F9A51A" />
                </g>
            </g>
        </g>
    </g>
    <defs>
        <clipPath id="clip0_0_49">
            <rect width="30" height="20" fill="white" />
        </clipPath>
        <clipPath id="clip1_0_49">
            <rect width="30" height="20" fill="white" />
        </clipPath>
        <clipPath id="clip2_0_49">
            <rect width="30" height="20" fill="white" />
        </clipPath>
        <clipPath id="clip3_0_49">
            <rect width="18.8889" height="5.26316" fill="white" transform="translate(5.3125 7.35294)" />
        </clipPath>
    </defs>
</svg>